<?xml version="1.0" encoding="utf-8"?>
<!-- Generator: Adobe Illustrator 27.3.1, SVG Export Plug-In . SVG Version: 6.00 Build 0)  -->
<svg version="1.1" id="Calque_1" xmlns="http://www.w3.org/2000/svg" xmlns:xlink="http://www.w3.org/1999/xlink" x="0px" y="0px"
	 viewBox="0 0 72 72" style="enable-background:new 0 0 72 72;" xml:space="preserve">
<style type="text/css">
	.st0{fill:#030304;}
</style>
<g>
	<path class="st0" d="M55.92,37.64l-3.86-12.14h-0.1l-4.32,12.14H55.92z M47.43,38.16l-1.9,5.35c-2.32,6.95-2.47,7.66,2.47,8.18
		l1.03,0.1l0.15,0.31H37.71l0.15-0.31l0.87-0.1c3.24-0.41,3.7-1.08,7.31-11.01l5.71-16l-0.62-1.6c2.01-0.67,3.09-2.06,3.91-3.96
		h0.72l8.65,26.08c1.8,5.4,2.52,6.33,4.89,6.48l1.44,0.1l0.15,0.31H55.51l0.15-0.31l1.49-0.1c2.62-0.15,2.73-1.6,1.65-4.99
		l-2.73-8.54L47.43,38.16L47.43,38.16z"/>
</g>
<g>
	<path class="st0" d="M0.72,36.16c0-9.67,7.05-16.98,18.83-16.98c3.4,0,7.1,1.03,8.7,1.95L31.23,20l0.21,10.24h-0.31l-4.79-8.75
		c-1.34-1.03-3.96-1.75-6.9-1.75c-8.13,0-12.4,7.25-12.4,16.05c0,10.39,5.97,16.51,12.24,16.51c2.62,0,4.99-0.87,6.12-1.75V39.29
		c0-0.36-0.67-0.57-3.29-0.72l-1.9-0.15l-0.15-0.31h15.38l-0.15,0.31l-2.01,0.2c-1.8,0.15-2.32,0.46-2.32,0.77v10.24l2.68-0.36
		l0.05,0.21c-3.96,1.65-10.5,3.4-14.97,3.4C7.97,52.87,0.72,45.98,0.72,36.16"/>
</g>
</svg>
