<?xml version="1.0" encoding="utf-8"?>
<!-- Generator: Adobe Illustrator 27.3.1, SVG Export Plug-In . SVG Version: 6.00 Build 0)  -->
<svg version="1.1" id="Calque_1" xmlns="http://www.w3.org/2000/svg" xmlns:xlink="http://www.w3.org/1999/xlink" x="0px" y="0px"
	 viewBox="0 0 1200 630" style="enable-background:new 0 0 1200 630;" xml:space="preserve">
<style type="text/css">
	.st0{clip-path:url(#SVGID_00000072241090795493107980000000133856137824733112_);}
	.st1{clip-path:url(#SVGID_00000132800744888500051050000006519879858143333815_);fill:#010202;}
</style>
<g>
	<g>
		<defs>
			<rect id="SVGID_1_" x="7.1" y="25.84" width="1192.9" height="578.33"/>
		</defs>
		<clipPath id="SVGID_00000161598141614798346030000009575580488309128342_">
			<use xlink:href="#SVGID_1_"  style="overflow:visible;"/>
		</clipPath>
		<g style="clip-path:url(#SVGID_00000161598141614798346030000009575580488309128342_);">
			<defs>
				<rect id="SVGID_00000181796608565508213250000014493152989147229082_" x="7.1" y="25.83" width="1192.9" height="578.33"/>
			</defs>
			<clipPath id="SVGID_00000082325856982329045660000003581353795094099858_">
				<use xlink:href="#SVGID_00000181796608565508213250000014493152989147229082_"  style="overflow:visible;"/>
			</clipPath>
			<path style="clip-path:url(#SVGID_00000082325856982329045660000003581353795094099858_);fill:#010202;" d="M940.93,343.53
				L876.14,139.7h-1.73l-72.54,203.82H940.93z M798.42,352.18l-31.97,89.83c-38.87,116.6-41.48,128.68,41.45,137.34l17.3,1.71
				l2.58,5.18H635.15l2.61-5.18l14.69-1.71c54.4-6.93,62.19-18.14,122.65-184.85l95.88-268.61L860.6,99.1
				c33.68-11.21,51.81-34.55,65.64-66.5h12.09l145.12,437.9c30.22,90.71,42.32,106.24,82.05,108.85l24.17,1.71l2.61,5.18H934.03
				l2.58-5.18l25.05-1.71c44.06-2.61,45.77-26.78,27.64-83.78l-45.78-143.38H798.42z"/>
			<path style="clip-path:url(#SVGID_00000082325856982329045660000003581353795094099858_);fill:#010202;" d="M14.09,318.48
				c0-162.37,118.31-285.03,316.13-285.03c57,0,119.18,17.26,145.96,32.82l50.1-19l3.45,171.89h-5.18L444.23,72.33
				c-22.46-17.28-66.51-29.37-115.74-29.37c-136.48,0-208.16,121.79-208.16,269.47c0,174.47,100.19,277.27,205.57,277.27
				c44.05,0,83.78-14.69,102.77-29.38V371.18c0-6.05-11.21-9.52-55.26-12.1l-31.96-2.59l-2.61-5.18h258.28l-2.59,5.18l-33.69,3.44
				c-30.24,2.61-38.87,7.77-38.87,12.97v171.88l44.92-6.04l0.87,3.45c-66.51,27.64-176.21,57-251.35,57
				C135.87,599.19,14.09,483.46,14.09,318.48"/>
		</g>
	</g>
</g>
</svg>
